<svg xmlns="http://www.w3.org/2000/svg" xmlns:xlink="http://www.w3.org/1999/xlink" width="1050" height="168.55"><rect width="1050" height="168.55" rx="5" ry="5" class="a"/><svg y="0%" x="0%"><circle cx="20" cy="20" r="6" fill="#ff5f58"/><circle cx="40" cy="20" r="6" fill="#ffbd2e"/><circle cx="60" cy="20" r="6" fill="#18c132"/></svg><svg height="108.55" viewBox="0 0 101 10.855" width="1010" x="15" xmlns="http://www.w3.org/2000/svg" xmlns:xlink="http://www.w3.org/1999/xlink" y="50"><style>@keyframes k{0%{transform:translateX(0)}14.9%{transform:translateX(-101px)}21.2%{transform:translateX(-202px)}24.8%{transform:translateX(-303px)}28.3%{transform:translateX(-404px)}31.9%{transform:translateX(-505px)}37.1%{transform:translateX(-606px)}36.3%{transform:translateX(-909px)}43.4%{transform:translateX(-1414px)}44.1%{transform:translateX(-1616px)}54%{transform:translateX(-1818px)}57.6%{transform:translateX(-1919px)}61.1%{transform:translateX(-2020px)}64.7%{transform:translateX(-2121px)}68.2%{transform:translateX(-2222px)}71.8%{transform:translateX(-2424px)}79%{transform:translateX(-2626px)}86.1%{transform:translateX(-2828px)}89.6%{transform:translateX(-3030px)}99.9%{transform:translateX(-3131px)}to{transform:translateX(-3333px)}}.a{fill:rgb(23,8,69,185)}.f{fill:#ff72d4;font-weight:700}.g{fill:#00ff9b}.h{fill:#b50000;font-weight:700}.i{fill:#31a1d2}</style><g font-size="1.67" font-family="Monaco,Consolas,Menlo,'Bitstream Vera Sans Mono','Powerline Symbols',monospace"><defs><symbol id="1"><text y="1.67" class="f">user</text><text x="4.008" y="1.67" class="g">@home</text><text x="10.02" y="1.67" class="g">(/</text><text x="12.024" y="1.67" class="f">~</text><text x="13.026" y="1.67" class="g">)&gt;</text></symbol><symbol id="2"><text y="1.67" class="f">user</text><text x="4.008" y="1.67" class="g">@home</text><text x="10.02" y="1.67" class="g">(/</text><text x="12.024" y="1.67" class="f">~</text><text x="13.026" y="1.67" class="g">)&gt;</text><text x="16.032" y="1.67" class="g">ffmpeg-bar</text><text x="27.054" y="1.67" class="g">-i</text><text x="30.06" y="1.67" class="g">$HOME/Movies/input.mp4</text><text x="53.106" y="1.67" class="g">-map</text><text x="58.116" y="1.67" class="g">0</text><text x="60.12" y="1.67" class="g">-c</text><text x="63.126" y="1.67" class="g">copy</text><text x="68.136" y="1.67" class="g">output_filename.mp4</text></symbol><symbol id="3"><text y="1.67" class="g">🔴</text><text x="3.006" y="1.67" class="h">output_fi….mp4</text><text x="18.036" y="1.67" class="g">|</text><text x="20.04" y="1.67" class="i">░░░░░░░░░░░░░░░░░░░░░░░░░░░░░░░░░░░░░░░░░░░░░░░░░░░░░░░░░░░░░</text><text x="82.164" y="1.67" class="g">|</text><text x="84.168" y="1.67" class="h">0%</text><text x="87.174" y="1.67" class="g">|</text><text x="89.178" y="1.67" class="h">ETA</text><text x="93.186" y="1.67" class="h">0s</text></symbol><symbol id="4"><text y="1.67" class="g">🔴</text><text x="3.006" y="1.67" class="h">output_fi….mp4</text><text x="18.036" y="1.67" class="g">|</text><text x="20.04" y="1.67" class="i">███░░░░░░░░░░░░░░░░░░░░░░░░░░░░░░░░░░░░░░░░░░░░░░░░░░░░░░░░░░</text><text x="82.164" y="1.67" class="g">|</text><text x="84.168" y="1.67" class="h">4%</text><text x="87.174" y="1.67" class="g">|</text><text x="89.178" y="1.67" class="h">ETA</text><text x="93.186" y="1.67" class="h">0s</text></symbol><symbol id="5"><text y="1.67" class="g">🔴</text><text x="3.006" y="1.67" class="h">output_fi….mp4</text><text x="18.036" y="1.67" class="g">|</text><text x="20.04" y="1.67" class="i">████████████░░░░░░░░░░░░░░░░░░░░░░░░░░░░░░░░░░░░░░░░░░░░░░░░░</text><text x="82.164" y="1.67" class="g">|</text><text x="84.168" y="1.67" class="h">20%</text><text x="88.176" y="1.67" class="g">|</text><text x="90.18" y="1.67" class="h">ETA</text><text x="94.188" y="1.67" class="h">7s</text></symbol><symbol id="6"><text y="1.67" class="g">🔴</text><text x="3.006" y="1.67" class="h">output_fi….mp4</text><text x="18.036" y="1.67" class="g">|</text><text x="20.04" y="1.67" class="i">██████████████████░░░░░░░░░░░░░░░░░░░░░░░░░░░░░░░░░░░░░░░░░░░</text><text x="82.164" y="1.67" class="g">|</text><text x="84.168" y="1.67" class="h">29%</text><text x="88.176" y="1.67" class="g">|</text><text x="90.18" y="1.67" class="h">ETA</text><text x="94.188" y="1.67" class="h">15s</text></symbol><symbol id="7"><text y="1.67" class="g">🔴</text><text x="3.006" y="1.67" class="h">output_fi….mp4</text><text x="18.036" y="1.67" class="g">|</text><text x="20.04" y="1.67" class="i">████████████████████████████░░░░░░░░░░░░░░░░░░░░░░░░░░░░░░░░░</text><text x="82.164" y="1.67" class="g">|</text><text x="84.168" y="1.67" class="h">46%</text><text x="88.176" y="1.67" class="g">|</text><text x="90.18" y="1.67" class="h">ETA</text><text x="94.188" y="1.67" class="h">20s</text></symbol><symbol id="8"><text y="1.67" class="g">🔴</text><text x="3.006" y="1.67" class="h">output_fi….mp4</text><text x="18.036" y="1.67" class="g">|</text><text x="20.04" y="1.67" class="i">███████████████████████████████████████░░░░░░░░░░░░░░░░░░░░░░</text><text x="82.164" y="1.67" class="g">|</text><text x="84.168" y="1.67" class="h">63%</text><text x="88.176" y="1.67" class="g">|</text><text x="90.18" y="1.67" class="h">ETA</text><text x="94.188" y="1.67" class="h">20s</text></symbol><symbol id="9"><text y="1.67" class="g">🔴</text><text x="3.006" y="1.67" class="h">output_fi….mp4</text><text x="18.036" y="1.67" class="g">|</text><text x="20.04" y="1.67" class="i">█████████████████████████████████████████████████░░░░░░░░░░░░</text><text x="82.164" y="1.67" class="g">|</text><text x="84.168" y="1.67" class="h">80%</text><text x="88.176" y="1.67" class="g">|</text><text x="90.18" y="1.67" class="h">ETA</text><text x="94.188" y="1.67" class="h">10s</text></symbol><symbol id="10"><text y="1.67" class="g">🔴</text><text x="3.006" y="1.67" class="h">output_fi….mp4</text><text x="18.036" y="1.67" class="g">|</text><text x="20.04" y="1.67" class="i">█████████████████████████████████████████████████████████████</text><text x="82.164" y="1.67" class="g">|</text><text x="84.168" y="1.67" class="h">99%</text><text x="88.176" y="1.67" class="g">|</text><text x="90.18" y="1.67" class="h">ETA</text><text x="94.188" y="1.67" class="h">1s</text></symbol><symbol id="11"><text y="1.67" class="g">🔴</text><text x="3.006" y="1.67" class="h">output_fi….mp4</text><text x="18.036" y="1.67" class="g">|</text><text x="20.04" y="1.67" class="i">█████████████████████████████████████████████████████████████</text><text x="82.164" y="1.67" class="g">|</text><text x="84.168" y="1.67" class="h">100%</text><text x="89.178" y="1.67" class="g">|</text><text x="91.182" y="1.67" class="h">ETA</text><text x="95.19" y="1.67" class="h">1s</text></symbol><symbol id="a"><path fill="transparent" d="M0 0h101v5H0z"/></symbol></defs><path class="a" d="M0 0h101v10.855H0z"/><g style="animation-duration:14.119799s;animation-iteration-count:infinite;animation-name:k;animation-timing-function:steps(1,end)"><svg width="3434"><svg><use xlink:href="#a"/></svg><svg x="101"><use xlink:href="#a"/><use xlink:href="#1"/></svg><svg x="202"><use xlink:href="#a"/><text y="1.67" class="f">user</text><text x="4.008" y="1.67" class="g">@home</text><text x="10.02" y="1.67" class="g">(/</text><text x="12.024" y="1.67" class="f">~</text><text x="13.026" y="1.67" class="g">)&gt;</text><text x="16.032" y="1.67" class="g">ffmpeg-bar</text></svg><svg x="303"><use xlink:href="#a"/><text y="1.67" class="f">user</text><text x="4.008" y="1.67" class="g">@home</text><text x="10.02" y="1.67" class="g">(/</text><text x="12.024" y="1.67" class="f">~</text><text x="13.026" y="1.67" class="g">)&gt;</text><text x="16.032" y="1.67" class="g">ffmpeg-bar</text><text x="27.054" y="1.67" class="g">-i</text><text x="30.06" y="1.67" class="g">$HOME/Movies/input.mp4</text></svg><svg x="404"><use xlink:href="#a"/><text y="1.67" class="f">user</text><text x="4.008" y="1.67" class="g">@home</text><text x="10.02" y="1.67" class="g">(/</text><text x="12.024" y="1.67" class="f">~</text><text x="13.026" y="1.67" class="g">)&gt;</text><text x="16.032" y="1.67" class="g">ffmpeg-bar</text><text x="27.054" y="1.67" class="g">-i</text><text x="30.06" y="1.67" class="g">$HOME/Movies/input.mp4</text><text x="53.106" y="1.67" class="g">-map</text><text x="58.116" y="1.67" class="g">0</text><text x="60.12" y="1.67" class="g">-c</text><text x="63.126" y="1.67" class="g">copy</text></svg><svg x="505"><use xlink:href="#a"/><use xlink:href="#2"/></svg><svg x="606"><use xlink:href="#a"/><use xlink:href="#2"/></svg><svg x="707"><use xlink:href="#a"/><use xlink:href="#2"/></svg><svg x="808"><use xlink:href="#a"/><use xlink:href="#2"/></svg><svg x="909"><use xlink:href="#a"/><use xlink:href="#2"/></svg><svg x="1010"><use xlink:href="#a"/><use xlink:href="#2"/><use xlink:href="#3" y="2.171"/></svg><svg x="1111"><use xlink:href="#a"/><use xlink:href="#2"/><use xlink:href="#3" y="2.171"/></svg><svg x="1212"><use xlink:href="#a"/><use xlink:href="#2"/><use xlink:href="#3" y="2.171"/></svg><svg x="1313"><use xlink:href="#a"/><use xlink:href="#2"/><use xlink:href="#3" y="2.171"/></svg><svg x="1414"><use xlink:href="#a"/><use xlink:href="#2"/><use xlink:href="#3" y="2.171"/></svg><svg x="1515"><use xlink:href="#a"/><use xlink:href="#2"/><use xlink:href="#4" y="2.171"/></svg><svg x="1616"><use xlink:href="#a"/><use xlink:href="#2"/><use xlink:href="#4" y="2.171"/></svg><svg x="1717"><use xlink:href="#a"/><use xlink:href="#2"/><use xlink:href="#5" y="2.171"/></svg><svg x="1818"><use xlink:href="#a"/><use xlink:href="#2"/><use xlink:href="#5" y="2.171"/></svg><svg x="1919"><use xlink:href="#a"/><use xlink:href="#2"/><use xlink:href="#6" y="2.171"/></svg><svg x="2020"><use xlink:href="#a"/><use xlink:href="#2"/><use xlink:href="#6" y="2.171"/></svg><svg x="2121"><use xlink:href="#a"/><use xlink:href="#2"/><use xlink:href="#7" y="2.171"/></svg><svg x="2222"><use xlink:href="#a"/><use xlink:href="#2"/><use xlink:href="#7" y="2.171"/></svg><svg x="2323"><use xlink:href="#a"/><use xlink:href="#2"/><use xlink:href="#8" y="2.171"/></svg><svg x="2424"><use xlink:href="#a"/><use xlink:href="#2"/><use xlink:href="#8" y="2.171"/></svg><svg x="2525"><use xlink:href="#a"/><use xlink:href="#2"/><use xlink:href="#9" y="2.171"/></svg><svg x="2626"><use xlink:href="#a"/><use xlink:href="#2"/><use xlink:href="#9" y="2.171"/></svg><svg x="2727"><use xlink:href="#a"/><use xlink:href="#2"/><text y="3.841" class="g">🔴</text><text x="3.006" y="3.841" class="h">output_fi….mp4</text><text x="18.036" y="3.841" class="g">|</text><text x="20.04" y="3.841" class="i">████████████████████████████████████████████████████████████░</text><text x="82.164" y="3.841" class="g">|</text><text x="84.168" y="3.841" class="h">99%</text><text x="88.176" y="3.841" class="g">|</text><text x="90.18" y="3.841" class="h">ETA</text><text x="94.188" y="3.841" class="h">1ss</text></svg><svg x="2828"><use xlink:href="#a"/><use xlink:href="#2"/><text y="3.841" class="g">🔴</text><text x="3.006" y="3.841" class="h">output_fi….mp4</text><text x="18.036" y="3.841" class="g">|</text><text x="20.04" y="3.841" class="i">████████████████████████████████████████████████████████████░</text><text x="82.164" y="3.841" class="g">|</text><text x="84.168" y="3.841" class="h">99%</text><text x="88.176" y="3.841" class="g">|</text><text x="90.18" y="3.841" class="h">ETA</text><text x="94.188" y="3.841" class="h">1s</text></svg><svg x="2929"><use xlink:href="#a"/><use xlink:href="#2"/><use xlink:href="#10" y="2.171"/></svg><svg x="3030"><use xlink:href="#a"/><use xlink:href="#2"/><use xlink:href="#10" y="2.171"/></svg><svg x="3131"><use xlink:href="#a"/><use xlink:href="#2"/><use xlink:href="#11" y="2.171"/></svg><svg x="3232"><use xlink:href="#a"/><use xlink:href="#2"/><use xlink:href="#11" y="2.171"/></svg><svg x="3333"><use xlink:href="#a"/><use xlink:href="#2"/><use xlink:href="#11" y="2.171"/><use xlink:href="#1" y="4.342"/></svg></svg></g></g></svg></svg>